<svg xmlns="http://www.w3.org/2000/svg" xmlns:xlink="http://www.w3.org/1999/xlink" width="31.571" height="22.34" viewBox="0 0 31.571 22.34">
  <defs>
    <clipPath id="clip-path">
      <rect width="31.571" height="22.34" fill="none"/>
    </clipPath>
  </defs>
  <g id="youtube" clip-path="url(#clip-path)">
    <path id="youtube-2" data-name="youtube" d="M25.014,67.393H6.557A6.557,6.557,0,0,0,0,73.95v9.227a6.557,6.557,0,0,0,6.557,6.557H25.014a6.557,6.557,0,0,0,6.557-6.557V73.95A6.557,6.557,0,0,0,25.014,67.393ZM20.579,79.012l-8.633,4.117a.347.347,0,0,1-.5-.313V74.324a.347.347,0,0,1,.5-.309l8.633,4.375A.347.347,0,0,1,20.579,79.012Z" transform="translate(0 -67.393)" fill="#daa520"/>
  </g>
</svg>
